PathFileType	4	(X/Y/Z)	D:\TRACE\v60_Jaco2_6-2-23\BothDRS_Motion3_4-v60.trc
DataRate	CameraRate	NumFrames	NumMarkers	Units	OrigDataRate	OrigDataStartFrame	OrigNumFrames
100.00	100.00	      13	9	mm	100.00	3501	      7000
Frame#	Time	front left toe			Front right toe			aft left toe			aft right toe			Arm			FL body			FR body			AL Body			AR Body			
		X1	Y1	Z1	X2	Y2	Z2	X3	Y3	Z3	X4	Y4	Z4	X5	Y5	Z5	X6	Y6	Z6	X7	Y7	Z7	X8	Y8	Z8	X9	Y9	Z9	

3501	35.000	-104.02039	128.16350	-129.03548	269.99399	11.91406	-133.36972	-105.44809	16.22131	485.74432	254.30161	133.48839	498.05301	184.84171	1090.60095	-537.21185	13.08505	509.68286	-304.98657	172.11406	502.01111	-304.02475	18.38548	572.34137	638.12445	170.70241	555.30499	639.27081	
3502	35.010	-102.70797	135.16751	-129.76956	269.52527	11.74490	-133.16586	-105.94460	15.64408	485.75574	257.00671	140.56526	496.89020	185.79764	1090.27698	-536.63367	13.92169	509.54938	-304.74762	172.84494	501.90961	-303.69397	18.14983	571.82324	638.37671	169.37650	554.36548	638.16956	
3503	35.020	-101.49197	141.01604	-130.37932	269.28214	11.98180	-132.94275	-106.40846	15.31847	486.05377	259.60730	145.84193	496.19427	186.39380	1090.09314	-536.27875	14.96025	509.40878	-304.44247	173.11157	501.82449	-302.62369	18.15798	571.51666	638.75977	169.03439	553.87061	638.73712	
3504	35.030	-100.44936	144.78195	-130.96059	268.94974	12.21943	-132.76315	-106.62585	14.93555	486.09924	263.05807	148.45317	496.03946	186.64203	1090.20093	-535.85968	15.63412	509.53284	-304.28452	173.62653	501.91150	-302.29056	17.70155	571.12329	639.22382	168.70456	553.30139	639.28741	
3505	35.040	-99.38399	145.14253	-130.73309	268.95114	12.44496	-132.62952	-106.91203	14.59235	486.11102	265.34009	147.95511	496.41092	187.26636	1090.18860	-535.24915	16.85276	509.46915	-303.64987	174.17407	501.88901	-302.13196	17.25819	570.74591	639.38464	168.97473	553.05725	640.23419	
3506	35.050	-97.46755	141.74002	-129.66237	269.00452	12.62594	-132.30516	-107.25199	14.06281	486.10132	267.63376	145.26378	497.51944	188.26341	1090.42078	-534.48187	17.48783	509.52252	-303.34149	175.29744	501.89252	-301.38110	16.95768	570.44635	639.66608	168.26973	553.16229	640.82892	
3507	35.060	-95.14032	136.87769	-128.65109	268.75302	12.59226	-132.05646	-107.19747	13.26514	486.14078	269.33829	140.97934	498.91742	189.67049	1090.44067	-533.60547	17.99633	509.34204	-302.99075	175.96899	501.54886	-300.95816	16.72907	570.03473	640.31665	168.53761	552.43005	640.76007	
3508	35.070	-92.48188	131.22054	-127.79903	268.41022	12.61105	-131.71396	-107.72128	13.01289	486.29205	269.92899	135.48943	500.13461	190.63420	1090.71704	-532.53052	18.66304	509.24133	-302.44589	176.54491	501.72403	-300.15674	15.97707	569.74133	641.32709	167.87131	552.14899	641.97015	
3509	35.080	-89.91523	124.95499	-127.16217	268.16202	12.66474	-131.30443	-108.06527	12.71237	486.30270	271.01126	129.60361	501.21692	191.76021	1090.94678	-531.25836	18.97218	509.40909	-302.16190	176.69003	502.14487	-299.68643	16.23422	569.08569	641.22467	167.63350	551.70624	642.60046	
3510	35.090	-87.64882	118.65966	-126.63992	267.77161	12.69838	-131.14284	-108.80710	12.37633	486.62607	272.65417	122.69550	502.45837	192.70320	1091.21167	-530.20111	19.53025	509.42770	-301.56604	177.52939	502.21881	-299.13644	15.62548	568.42090	641.83655	167.97469	551.37964	644.02264	
3511	35.100	-86.13733	112.08344	-126.44556	267.34216	12.68182	-131.18207	-109.24102	11.73672	486.79178	275.02762	116.13471	503.04181	192.97395	1091.66833	-528.95502	20.16588	509.68338	-301.22247	178.46916	502.08597	-298.36240	14.81488	567.99695	642.47162	166.27219	550.79462	643.93048	
3512	35.110	-84.52219	105.18208	-125.79552	267.07788	12.90511	-130.91487	-109.24234	11.15812	486.93765	276.74280	108.73810	503.64993	193.18195	1092.23682	-527.74127	20.88488	509.66129	-300.67212	179.24153	502.32211	-297.43329	14.66722	567.41040	643.06830	166.61450	549.94611	644.86322	
3513	35.120	-82.68752	98.00429	-125.70945	266.90948	13.31578	-130.56459	-109.65438	10.55052	486.96832	278.39676	100.92303	504.12881	193.26022	1092.45544	-526.29620	21.57096	509.70221	-299.78497	179.34489	502.53928	-296.66849	13.93679	566.55145	643.82764	166.69255	549.48071	646.22333	
